<?xml version="1.0" encoding="UTF-8"?>
<svg xmlns="http://www.w3.org/2000/svg" width="256" height="64" viewBox="0 0 256 64">
<g data-frame-key="crop.turnip.stage.00" data-bounds="25,25,14,27" data-occupancy="0.105" data-stage="0" transform="translate(0 0)"><rect x="2" y="2" width="60" height="60" rx="18" fill="#BFE3A4" stroke="#7B4E2E" stroke-width="3"/><path d="M32 49V34" stroke="#477B3D" stroke-width="4" stroke-linecap="round"/><ellipse cx="27" cy="34" rx="5" ry="9" transform="rotate(-38 27 34)" fill="#6FAE5B" stroke="#477B3D" stroke-width="2"/><ellipse cx="37" cy="33" rx="5" ry="9" transform="rotate(38 37 33)" fill="#6FAE5B" stroke="#477B3D" stroke-width="2"/><ellipse cx="32" cy="50" rx="5" ry="3" fill="#74462F" opacity=".35"/></g>
<g data-frame-key="crop.turnip.stage.01" data-bounds="20,18,24,36" data-occupancy="0.185" data-stage="1" transform="translate(64 0)"><rect x="2" y="2" width="60" height="60" rx="18" fill="#BFE3A4" stroke="#7B4E2E" stroke-width="3"/><g transform="translate(32 8) scale(0.72) translate(-32 0)"><path d="M32 42V19" stroke="#477B3D" stroke-width="4" stroke-linecap="round"/><ellipse cx="22" cy="21" rx="7" ry="12" transform="rotate(-42 22 21)" fill="#6FAE5B" stroke="#477B3D" stroke-width="2"/><ellipse cx="42" cy="20" rx="7" ry="12" transform="rotate(42 42 20)" fill="#6FAE5B" stroke="#477B3D" stroke-width="2"/><ellipse cx="32" cy="43" rx="7" ry="9" fill="#F5E7F4" stroke="#E85C70" stroke-width="3"/><path d="M27 56q5 7 10 0" fill="none" stroke="#E85C70" stroke-width="3" stroke-linecap="round"/></g></g>
<g data-frame-key="crop.turnip.stage.02" data-bounds="16,12,32,44" data-occupancy="0.305" data-stage="2" transform="translate(128 0)"><rect x="2" y="2" width="60" height="60" rx="18" fill="#BFE3A4" stroke="#7B4E2E" stroke-width="3"/><g transform="translate(32 4) scale(0.9) translate(-32 0)"><path d="M32 42V19" stroke="#477B3D" stroke-width="4" stroke-linecap="round"/><ellipse cx="22" cy="21" rx="7" ry="12" transform="rotate(-42 22 21)" fill="#6FAE5B" stroke="#477B3D" stroke-width="2"/><ellipse cx="42" cy="20" rx="7" ry="12" transform="rotate(42 42 20)" fill="#6FAE5B" stroke="#477B3D" stroke-width="2"/><ellipse cx="32" cy="17" rx="6" ry="11" transform="rotate(0 32 17)" fill="#BFE3A4" stroke="#477B3D" stroke-width="2"/><ellipse cx="32" cy="43" rx="10" ry="13" fill="#F5E7F4" stroke="#E85C70" stroke-width="3"/><path d="M27 56q5 7 10 0" fill="none" stroke="#E85C70" stroke-width="3" stroke-linecap="round"/></g></g>
<g data-frame-key="crop.turnip.stage.03" data-bounds="11,7,42,52" data-occupancy="0.475" data-stage="3" transform="translate(192 0)"><rect x="2" y="2" width="60" height="60" rx="18" fill="#BFE3A4" stroke="#7B4E2E" stroke-width="3"/><g transform="translate(32 0) scale(1.12) translate(-32 0)"><path d="M32 42V19" stroke="#477B3D" stroke-width="4" stroke-linecap="round"/><ellipse cx="22" cy="21" rx="7" ry="12" transform="rotate(-42 22 21)" fill="#6FAE5B" stroke="#477B3D" stroke-width="2"/><ellipse cx="42" cy="20" rx="7" ry="12" transform="rotate(42 42 20)" fill="#6FAE5B" stroke="#477B3D" stroke-width="2"/><ellipse cx="32" cy="17" rx="6" ry="11" transform="rotate(0 32 17)" fill="#BFE3A4" stroke="#477B3D" stroke-width="2"/><ellipse cx="32" cy="43" rx="14" ry="17" fill="#F5E7F4" stroke="#E85C70" stroke-width="3"/><path d="M27 56q5 7 10 0" fill="none" stroke="#E85C70" stroke-width="3" stroke-linecap="round"/></g></g>
</svg>
