<svg xmlns="http://www.w3.org/2000/svg" width="96" height="32" viewBox="0 0 96 32">
  <g id="grass">
    <rect width="32" height="32" fill="#a8d98c"/>
    <path d="M5 24l2-4 1 4M21 10l2-4 1 4M14 29l1-3 2 3" stroke="#83bc70" stroke-width="1.5" stroke-linecap="round" fill="none"/>
  </g>
  <g id="soil" transform="translate(32)">
    <rect width="32" height="32" fill="#c99864"/>
    <path d="M4 9c7-3 15-3 24 0M4 17c8-3 16-3 24 0M4 25c7-3 15-3 24 0" stroke="#ad784e" stroke-width="1.5" stroke-linecap="round" fill="none" opacity=".7"/>
  </g>
  <g id="bush" transform="translate(64)">
    <ellipse cx="16" cy="27" rx="12" ry="3" fill="#557646" opacity=".25"/>
    <circle cx="10" cy="19" r="8" fill="#5f9b58"/>
    <circle cx="21" cy="18" r="9" fill="#68aa61"/>
    <circle cx="16" cy="11" r="8" fill="#74b96d"/>
    <circle cx="13" cy="10" r="2" fill="#9fd18f" opacity=".7"/>
    <circle cx="23" cy="16" r="2" fill="#4f8e4d" opacity=".8"/>
  </g>
</svg>
